<svg xmlns="http://www.w3.org/2000/svg" width="1600" height="900" viewBox="0 0 1600 900">
<defs><linearGradient id="g" x1="0" y1="0" x2="1" y2="0"><stop offset="0" stop-color="#0a0a08" stop-opacity="0.85"/><stop offset="0.55" stop-color="#0a0a08" stop-opacity="0.4"/><stop offset="1" stop-color="#0a0a08" stop-opacity="0.1"/></linearGradient></defs>
<rect width="1600" height="900" fill="#123F24"/><rect x="0" y="640" width="1600" height="260" fill="#0e2c18"/><rect x="40" y="440" width="120" height="380" fill="#153a20" opacity="0.9"/><rect x="48" y="460" width="104" height="55" fill="#C9A063" opacity="0.75"/><rect x="48" y="540" width="104" height="55" fill="#C9A063" opacity="0.75"/><rect x="48" y="620" width="104" height="55" fill="#C9A063" opacity="0.75"/><rect x="48" y="700" width="104" height="55" fill="#C9A063" opacity="0.75"/><rect x="200" y="440" width="120" height="380" fill="#153a20" opacity="0.9"/><rect x="208" y="460" width="104" height="55" fill="#C9A063" opacity="0.75"/><rect x="208" y="540" width="104" height="55" fill="#C9A063" opacity="0.75"/><rect x="208" y="620" width="104" height="55" fill="#C9A063" opacity="0.75"/><rect x="208" y="700" width="104" height="55" fill="#C9A063" opacity="0.75"/><rect x="360" y="440" width="120" height="380" fill="#153a20" opacity="0.9"/><rect x="368" y="460" width="104" height="55" fill="#C9A063" opacity="0.75"/><rect x="368" y="540" width="104" height="55" fill="#C9A063" opacity="0.75"/><rect x="368" y="620" width="104" height="55" fill="#C9A063" opacity="0.75"/><rect x="368" y="700" width="104" height="55" fill="#C9A063" opacity="0.75"/><rect x="520" y="440" width="120" height="380" fill="#153a20" opacity="0.9"/><rect x="528" y="460" width="104" height="55" fill="#C9A063" opacity="0.75"/><rect x="528" y="540" width="104" height="55" fill="#C9A063" opacity="0.75"/><rect x="528" y="620" width="104" height="55" fill="#C9A063" opacity="0.75"/><rect x="528" y="700" width="104" height="55" fill="#C9A063" opacity="0.75"/><rect x="680" y="440" width="120" height="380" fill="#153a20" opacity="0.9"/><rect x="688" y="460" width="104" height="55" fill="#C9A063" opacity="0.75"/><rect x="688" y="540" width="104" height="55" fill="#C9A063" opacity="0.75"/><rect x="688" y="620" width="104" height="55" fill="#C9A063" opacity="0.75"/><rect x="688" y="700" width="104" height="55" fill="#C9A063" opacity="0.75"/><rect x="840" y="440" width="120" height="380" fill="#153a20" opacity="0.9"/><rect x="848" y="460" width="104" height="55" fill="#C9A063" opacity="0.75"/><rect x="848" y="540" width="104" height="55" fill="#C9A063" opacity="0.75"/><rect x="848" y="620" width="104" height="55" fill="#C9A063" opacity="0.75"/><rect x="848" y="700" width="104" height="55" fill="#C9A063" opacity="0.75"/><rect x="1000" y="440" width="120" height="380" fill="#153a20" opacity="0.9"/><rect x="1008" y="460" width="104" height="55" fill="#C9A063" opacity="0.75"/><rect x="1008" y="540" width="104" height="55" fill="#C9A063" opacity="0.75"/><rect x="1008" y="620" width="104" height="55" fill="#C9A063" opacity="0.75"/><rect x="1008" y="700" width="104" height="55" fill="#C9A063" opacity="0.75"/><rect x="1160" y="440" width="120" height="380" fill="#153a20" opacity="0.9"/><rect x="1168" y="460" width="104" height="55" fill="#C9A063" opacity="0.75"/><rect x="1168" y="540" width="104" height="55" fill="#C9A063" opacity="0.75"/><rect x="1168" y="620" width="104" height="55" fill="#C9A063" opacity="0.75"/><rect x="1168" y="700" width="104" height="55" fill="#C9A063" opacity="0.75"/><rect x="1320" y="440" width="120" height="380" fill="#153a20" opacity="0.9"/><rect x="1328" y="460" width="104" height="55" fill="#C9A063" opacity="0.75"/><rect x="1328" y="540" width="104" height="55" fill="#C9A063" opacity="0.75"/><rect x="1328" y="620" width="104" height="55" fill="#C9A063" opacity="0.75"/><rect x="1328" y="700" width="104" height="55" fill="#C9A063" opacity="0.75"/><rect x="1480" y="440" width="120" height="380" fill="#153a20" opacity="0.9"/><rect x="1488" y="460" width="104" height="55" fill="#C9A063" opacity="0.75"/><rect x="1488" y="540" width="104" height="55" fill="#C9A063" opacity="0.75"/><rect x="1488" y="620" width="104" height="55" fill="#C9A063" opacity="0.75"/><rect x="1488" y="700" width="104" height="55" fill="#C9A063" opacity="0.75"/><rect x="0" y="0" width="1600" height="900" fill="url(#g)"/>
</svg>