<svg xmlns="http://www.w3.org/2000/svg" width="640" height="640" viewBox="0 0 640 640">
<rect width="640" height="640" fill="#FBF8F4"/>
<rect width="640" height="640" fill="#B9B4AC"/><rect x="40" y="60" width="95" height="100" rx="6" fill="#9C968C" stroke="#7d7870" stroke-width="3"/><rect x="40" y="190" width="95" height="100" rx="6" fill="#9C968C" stroke="#7d7870" stroke-width="3"/><rect x="40" y="320" width="95" height="100" rx="6" fill="#9C968C" stroke="#7d7870" stroke-width="3"/><rect x="40" y="450" width="95" height="100" rx="6" fill="#9C968C" stroke="#7d7870" stroke-width="3"/><rect x="155" y="60" width="95" height="100" rx="6" fill="#9C968C" stroke="#7d7870" stroke-width="3"/><rect x="155" y="190" width="95" height="100" rx="6" fill="#9C968C" stroke="#7d7870" stroke-width="3"/><rect x="155" y="320" width="95" height="100" rx="6" fill="#9C968C" stroke="#7d7870" stroke-width="3"/><rect x="155" y="450" width="95" height="100" rx="6" fill="#9C968C" stroke="#7d7870" stroke-width="3"/><rect x="270" y="60" width="95" height="100" rx="6" fill="#9C968C" stroke="#7d7870" stroke-width="3"/><rect x="270" y="190" width="95" height="100" rx="6" fill="#9C968C" stroke="#7d7870" stroke-width="3"/><rect x="270" y="320" width="95" height="100" rx="6" fill="#9C968C" stroke="#7d7870" stroke-width="3"/><rect x="270" y="450" width="95" height="100" rx="6" fill="#9C968C" stroke="#7d7870" stroke-width="3"/><rect x="385" y="60" width="95" height="100" rx="6" fill="#9C968C" stroke="#7d7870" stroke-width="3"/><rect x="385" y="190" width="95" height="100" rx="6" fill="#9C968C" stroke="#7d7870" stroke-width="3"/><rect x="385" y="320" width="95" height="100" rx="6" fill="#9C968C" stroke="#7d7870" stroke-width="3"/><rect x="385" y="450" width="95" height="100" rx="6" fill="#9C968C" stroke="#7d7870" stroke-width="3"/><rect x="500" y="60" width="95" height="100" rx="6" fill="#9C968C" stroke="#7d7870" stroke-width="3"/><rect x="500" y="190" width="95" height="100" rx="6" fill="#9C968C" stroke="#7d7870" stroke-width="3"/><rect x="500" y="320" width="95" height="100" rx="6" fill="#9C968C" stroke="#7d7870" stroke-width="3"/><rect x="500" y="450" width="95" height="100" rx="6" fill="#9C968C" stroke="#7d7870" stroke-width="3"/><rect x="0" y="576" width="640" height="64" fill="#241F1A" opacity="0.55"/>
<text x="24" y="610" font-family="Arial,Helvetica,sans-serif" font-size="26" font-weight="700" fill="#fff">Cemento y mortero</text>
</svg>